<svg xmlns="http://www.w3.org/2000/svg" xmlns:xlink="http://www.w3.org/1999/xlink" version="1.1" x="0px" y="0px" viewBox="0 0 100 100" enable-background="new 0 0 100 100" xml:space="preserve"><path fill="#000000" d="M27,14v46h64V14H27z M87,56H31V18h56V56z"/><polygon fill="#000000" points="79.463,62.633 79.611,64.922 23.154,68.588 20.676,30.44 22.965,30.292 22.718,26.477   16.614,26.874 19.587,72.65 83.674,68.488 83.277,62.385 "/><polygon fill="#000000" points="74.322,70.348 74.676,72.615 18.778,81.354 12.874,43.583 15.14,43.229 14.55,39.453 8.506,40.397   15.591,85.721 79.043,75.801 78.1,69.758 "/><polygon fill="#000000" points="85.951,52 72.826,30.336 65.562,39.511 48.105,36.899 34.216,52 "/><circle fill="#000000" cx="47.595" cy="26.64" r="4.969"/></svg>