<?xml version="1.0" encoding="utf-8"?>
<!DOCTYPE svg PUBLIC "-//W3C//DTD SVG 1.1//EN" "http://www.w3.org/Graphics/SVG/1.1/DTD/svg11.dtd">
<svg version="1.1" id="exif" xmlns="http://www.w3.org/2000/svg" xmlns:xlink="http://www.w3.org/1999/xlink" x="0px" y="0px"
	 width="64px" height="64px" viewBox="0 0 64 64" enable-background="new 0 0 64 64" xml:space="preserve">
		<path class="envira-icon" d="M56,12h-6C47.5,7.3,43.2,0,40,0H24c-3.2,0-7.5,7.3-10,12H8c-4.4,0-8,3.6-8,8v36c0,4.4,3.6,8,8,8h48
			c4.4,0,8-3.6,8-8V20C64,15.6,60.4,12,56,12z M24,4h16c1.5,0,4.2,4.5,6,8H18C19.8,8.5,22.5,4,24,4z M4,28h13
			c-0.8,1.2-1.4,2.6-1.9,4H4V28z M60,56c0,2.2-1.8,4-4,4H8c-2.2,0-4-1.8-4-4V36h10.2c-0.1,0.7-0.2,1.3-0.2,2c0,9.9,8.1,18,18,18
			c9.9,0,18-8.1,18-18c0-0.7-0.1-1.3-0.2-2H60V56z M18,38c0-7.7,6.3-14,14-14s14,6.3,14,14c0,7.7-6.3,14-14,14S18,45.7,18,38z
			 M60,32H48.9c-0.5-1.4-1.1-2.8-1.9-4h13V32z M60,24H43.2c-3.1-2.5-6.9-4-11.2-4s-8.1,1.5-11.2,4H4v-4c0-2.2,1.8-4,4-4h48
			c2.2,0,4,1.8,4,4V24z"/>
</svg>