<?xml version="1.0" encoding="utf-8"?>
<!DOCTYPE svg PUBLIC "-//W3C//DTD SVG 1.1//EN" "http://www.w3.org/Graphics/SVG/1.1/DTD/svg11.dtd">
<svg version="1.1" id="misc" xmlns="http://www.w3.org/2000/svg" xmlns:xlink="http://www.w3.org/1999/xlink" x="0px" y="0px"
	 width="64px" height="64px" viewBox="0 0 64 64" enable-background="new 0 0 64 64" xml:space="preserve">
		<path class="envira-icon" d="M62,11.8l-8.9,8.9L45,19l-1.6-8.1L52.2,2c-2.8-1.3-5.9-2-9-2C38,0,32.7,2,28.7,6c-5.7,5.7-7.3,14-4.9,21.2
			L2.7,48.3c-3.6,3.6-3.6,9.4,0,13C4.5,63.1,6.8,64,9.2,64c2.4,0,4.7-0.9,6.5-2.7l21.1-21.1c2.2,0.7,4.4,1.1,6.7,1.1
			c5.3,0,10.5-2,14.5-6C64.4,28.9,65.6,19.5,62,11.8z M54.8,32c-3,3-7,4.7-11.3,4.7c-1.8,0-3.5-0.3-5.2-0.8L35.6,35l-2,2L12.5,58.1
			c-0.9,0.9-2,1.4-3.3,1.4c-1.2,0-2.4-0.5-3.3-1.4c-0.9-0.9-1.4-2-1.4-3.3c0-1.2,0.5-2.4,1.4-3.3L27,30.4l2-2l-0.9-2.7
			c-2-5.9-0.5-12.2,3.8-16.5c3-3,7-4.7,11.3-4.7l-3.1,3.1l-1.7,1.7l0.5,2.4l1.6,8.1l0.6,3l3,0.6l8.1,1.6l2.4,0.5l1.7-1.7l3.1-3.1
			C59.4,24.9,57.8,29,54.8,32z"/>
</svg>