<svg enable-background="new 0 0 92 92" viewBox="0 0 92 92" xmlns="http://www.w3.org/2000/svg"><path d="m45.386.004c-25.403.34-45.719 21.211-45.381 46.615.34 25.393 21.209 45.715 46.611 45.377 25.398-.342 45.718-21.213 45.38-46.615-.34-25.395-21.21-45.716-46.61-45.377zm-.136 73.996-.254-.004c-3.912-.116-6.67-2.998-6.559-6.852.109-3.788 2.934-6.538 6.717-6.538l.227.004c4.021.119 6.748 2.972 6.635 6.937-.112 3.799-2.893 6.453-6.766 6.453zm16.455-32.659c-.92 1.307-2.943 2.93-5.492 4.916l-2.807 1.938c-1.541 1.198-2.471 2.325-2.82 3.434-.275.873-.41 1.104-.434 2.88l-.004.451h-10.718l.031-.907c.131-3.728.223-5.921 1.768-7.733 2.424-2.846 7.771-6.289 7.998-6.435.766-.577 1.412-1.234 1.893-1.936 1.125-1.551 1.623-2.772 1.623-3.972 0-1.665-.494-3.205-1.471-4.576-.939-1.323-2.723-1.993-5.303-1.993-2.559 0-4.311.812-5.359 2.478-1.078 1.713-1.623 3.512-1.623 5.35v.457h-11.051l.02-.477c.285-6.769 2.701-11.643 7.178-14.487 2.813-1.811 6.313-2.729 10.397-2.729 5.346 0 9.859 1.299 13.412 3.861 3.6 2.596 5.426 6.484 5.426 11.556 0 2.837-.896 5.502-2.664 7.924z" fill="#d4d4d4"/></svg>