<?xml version="1.0" encoding="utf-8"?>
<!DOCTYPE svg PUBLIC "-//W3C//DTD SVG 1.1//EN" "http://www.w3.org/Graphics/SVG/1.1/DTD/svg11.dtd">
<svg version="1.1" id="configuration" xmlns="http://www.w3.org/2000/svg" xmlns:xlink="http://www.w3.org/1999/xlink" x="0px" y="0px"
	 width="64px" height="64px" viewBox="0 0 64 64" enable-background="new 0 0 64 64" xml:space="preserve">
<path class="envira-icon" fill-rule="evenodd" clip-rule="evenodd" d="M60,38l-5.1,0.9c-0.5,1.6-1.1,3.1-1.9,4.5l3,4.2
	c1.6,1.6,1.6,4.1,0,5.7L53.2,56c-1.6,1.6-4.1,1.6-5.7,0l-4.2-3c-1.4,0.8-2.9,1.4-4.5,1.9L38,60c0,2.2-1.8,4-4,4h-4c-2.2,0-4-1.8-4-4
	l-0.9-5.1c-1.6-0.5-3.1-1.1-4.5-1.9l-4.2,3c-1.6,1.6-4.1,1.6-5.7,0L8,53.2c-1.6-1.6-1.6-4.1,0-5.7l3-4.2c-0.8-1.4-1.4-2.9-1.9-4.5
	L4,38c-2.2,0-4-1.8-4-4v-4c0-2.2,1.8-4,4-4l5.1-0.9c0.5-1.6,1.1-3.1,1.9-4.5l-3-4.2c-1.6-1.6-1.6-4.1,0-5.7L10.8,8
	c1.6-1.6,4.1-1.6,5.7,0l4.2,3c1.4-0.8,2.9-1.4,4.5-1.9L26,4c0-2.2,1.8-4,4-4h4c2.2,0,4,1.8,4,4l0.9,5.1c1.6,0.5,3.1,1.1,4.5,1.9
	l4.2-3c1.6-1.6,4.1-1.6,5.7,0l2.8,2.8c1.6,1.6,1.6,4.1,0,5.7l-3,4.2c0.8,1.4,1.4,2.9,1.9,4.5L60,26c2.2,0,4,1.8,4,4v4
	C64,36.2,62.2,38,60,38z M58,30l-6.3-1c-0.5-3.2-1.8-6.2-3.6-8.7l3.7-5.2c0.8-0.8,0.8-2,0-2.8c-0.8-0.8-2-0.8-2.8,0l-5.2,3.7
	c-2.5-1.8-5.5-3.1-8.7-3.6L34,6c0-1.1-0.9-2-2-2c-1.1,0-2,0.9-2,2l-1.1,6.3c-3.2,0.5-6.2,1.8-8.7,3.6L15,12.2c-0.8-0.8-2-0.8-2.8,0
	c-0.8,0.8-0.8,2,0,2.8l3.7,5.2c-1.9,2.5-3.1,5.5-3.6,8.7L6,30c-1.1,0-2,0.9-2,2s0.9,2,2,2l6.3,1c0.5,3.2,1.8,6.2,3.6,8.7L12.2,49
	c-0.8,0.8-0.8,2,0,2.8c0.8,0.8,2,0.8,2.8,0l5.2-3.7c2.5,1.8,5.5,3.1,8.7,3.6L30,58c0,1.1,0.9,2,2,2c1.1,0,2-0.9,2-2l1-6.3
	c3.2-0.5,6.2-1.8,8.7-3.6l5.2,3.7c0.8,0.8,2,0.8,2.8,0c0.8-0.8,0.8-2,0-2.8l-3.7-5.2c1.9-2.5,3.1-5.5,3.6-8.7l6.3-1c1.1,0,2-0.9,2-2
	S59.1,30,58,30z M32,42c-5.5,0-10-4.5-10-10c0-5.5,4.5-10,10-10c5.5,0,10,4.5,10,10C42,37.5,37.5,42,32,42z M32,26c-3.3,0-6,2.7-6,6
	c0,3.3,2.7,6,6,6c3.3,0,6-2.7,6-6C38,28.7,35.3,26,32,26z"/>
</svg>