<?xml version="1.0" encoding="utf-8"?>
<!DOCTYPE svg PUBLIC "-//W3C//DTD SVG 1.1//EN" "http://www.w3.org/Graphics/SVG/1.1/DTD/svg11.dtd">
<svg version="1.1" id="download" xmlns="http://www.w3.org/2000/svg" xmlns:xlink="http://www.w3.org/1999/xlink" x="0px" y="0px"
	 width="64px" height="64px" viewBox="0 0 64 64" enable-background="new 0 0 64 64" xml:space="preserve">
		<path class="envira-icon" fill="#3C4042" d="M51.2,7.9h-7.9v3.9h5.1l6.7,23.6H29.5c0.4,0,0.7-0.1,1-0.3c0.3-0.1,0.6-0.3,0.9-0.5l11.2-11.2
			c0.9-0.9,0.9-2.3,0-3.2c-0.9-0.9-2.3-0.9-3.2,0L31.6,28V2c0-1.1-0.9-2-2-2c-1.1,0-2,0.9-2,2v26.2l-7.9-7.9c-0.9-0.9-2.3-0.9-3.2,0
			c-0.9,0.9-0.9,2.3,0,3.2l11.2,11.2c0.3,0.3,0.7,0.5,1.1,0.6c0.3,0.1,0.6,0.2,0.9,0.2H3.9l6.8-23.6h5.1V7.9H7.9L0,35.4v23.6
			C0,61.2,1.8,63,3.9,63h51.2c2.2,0,3.9-1.8,3.9-3.9V35.4L51.2,7.9z M19.7,35.4h19.7v7.9H19.7V35.4z M55.1,57.1c0,1.1-0.9,2-2,2H5.9
			c-1.1,0-2-0.9-2-2V41.3c0-1.1,0.9-2,2-2h9.8v7.9h27.6v-7.9h9.8c1.1,0,2,0.9,2,2V57.1z"/>
</svg>