<?xml version="1.0" encoding="utf-8"?>
<!DOCTYPE svg PUBLIC "-//W3C//DTD SVG 1.1//EN" "http://www.w3.org/Graphics/SVG/1.1/DTD/svg11.dtd">
<svg version="1.1" id="leaf" xmlns="http://www.w3.org/2000/svg" xmlns:xlink="http://www.w3.org/1999/xlink" x="0px" y="0px"
	 width="64px" height="64px" viewBox="0 0 64 64" enable-background="new 0 0 64 64" xml:space="preserve">
<path class="envira-icon" d="M19.6,47.8c12.9,10.1,25.1,5.8,30.7,5.2l10,10H64L52.5,51.5C52.4,44.6,68.2,0,0,0
	C7.4,25.7,6.7,37.7,19.6,47.8 M32,28.7C35.2,34.8,41,44,45,47c4,3,8.4,5.2-0.9,1.2C34.8,44.3,28,33.1,23.5,24.6
	c-3.5-6.5-6.4-12.4-12.9-16.8c-6.5-4.4,0.8-1.3,0.8-1.3C23.2,12.3,27.5,20.2,32,28.7"/>
</svg>
