<?xml version="1.0" encoding="utf-8"?>
<!DOCTYPE svg PUBLIC "-//W3C//DTD SVG 1.1//EN" "http://www.w3.org/Graphics/SVG/1.1/DTD/svg11.dtd">
<svg version="1.1" id="pinterest" xmlns="http://www.w3.org/2000/svg" xmlns:xlink="http://www.w3.org/1999/xlink" x="0px" y="0px"
	 width="64px" height="64px" viewBox="0 0 64 64" enable-background="new 0 0 64 64" xml:space="preserve">
	<path d="M33.587,0.534c11.815,0,22.577,8.128,22.577,20.583c0,11.702-5.982,24.685-19.303,24.685c-3.161,0-7.15-1.58-8.692-4.516
		c-2.86,11.326-2.634,13.02-8.956,21.674l-0.527,0.188l-0.339-0.375c-0.226-2.371-0.564-4.705-0.564-7.074
		c0-7.678,3.537-18.777,5.268-26.228c-0.941-1.919-1.204-4.252-1.204-6.359c0-3.801,2.634-8.617,6.923-8.617
		c3.161,0,4.854,2.408,4.854,5.381c0,4.892-3.312,9.482-3.312,14.223c0,3.236,2.672,5.494,5.795,5.494
		c8.654,0,11.326-12.493,11.326-19.153c0-8.918-6.321-13.772-14.863-13.772c-9.934,0-17.61,7.149-17.61,17.234
		c0,4.854,2.972,7.337,2.972,8.504c0,0.978-0.715,4.441-1.957,4.441c-0.188,0-0.452-0.076-0.64-0.113
		C9.957,35.113,8,27.927,8,22.998C8,9.113,20.718,0.534,33.587,0.534z"/>
</svg>