<?xml version="1.0" encoding="utf-8"?>
<!DOCTYPE svg PUBLIC "-//W3C//DTD SVG 1.1//EN" "http://www.w3.org/Graphics/SVG/1.1/DTD/svg11.dtd">
<svg version="1.1" id="proofing" xmlns="http://www.w3.org/2000/svg" xmlns:xlink="http://www.w3.org/1999/xlink" x="0px" y="0px"
	 width="64px" height="64px" viewBox="0 0 64 64" enable-background="new 0 0 64 64" xml:space="preserve">
<path class="envira-icon" fill-rule="evenodd" clip-rule="evenodd" d="M60.6,64H12.4C10.5,64,9,62.5,9,60.6V52c0-0.1,0-0.2,0-0.3V12.4
	C9,10.5,10.5,9,12.4,9h48.1c1.9,0,3.4,1.5,3.4,3.4v48.1C64,62.5,62.5,64,60.6,64z M12.4,58.8c0,0.9,0.8,1.7,1.7,1.7h30.5L27.5,40.8
	L12.4,53V58.8z M60.6,14.2c0-0.9-0.8-1.7-1.7-1.7H14.2c-0.9,0-1.7,0.8-1.7,1.7v34.1L26.3,37c0.3-0.2,0.6-0.3,0.9-0.4
	c0.1,0,0.1,0,0.2-0.1c0.1,0,0.3-0.1,0.4-0.1c0.5-0.1,1.1,0.1,1.4,0.5l5.3,6.2l16.1-13.1c0.4-0.4,0.9-0.5,1.4-0.4
	c0.6,0,1.1,0.1,1.6,0.4l7,7.6V14.2z M60.6,42.9C60.5,42.9,60.5,42.9,60.6,42.9l-8.8-9.4L36.7,45.8l12.8,14.8h9.3
	c0.9,0,1.7-0.8,1.7-1.7V42.9z M22.8,29.6c-3.8,0-6.9-3.1-6.9-6.9c0-3.8,3.1-6.9,6.9-6.9s6.9,3.1,6.9,6.9
	C29.6,26.5,26.6,29.6,22.8,29.6z M22.8,19.3c-1.9,0-3.4,1.5-3.4,3.4c0,1.9,1.5,3.4,3.4,3.4c1.9,0,3.4-1.5,3.4-3.4
	C26.2,20.9,24.7,19.3,22.8,19.3z M16,4h-4V0h4V4z M28,4h-4V0h4V4z M40,4h-4V0h4V4z M52,4h-4V0h4V4z M64,4h-4V0h4V4z M4,4H0V0h4V4z
	 M4,16H0v-4h4V16z M4,28H0v-4h4V28z M4,40H0v-4h4V40z M4,52H0v-4h4V52z M4,64H0v-4h4V64z"/>
</svg>
