<?xml version="1.0" encoding="utf-8"?>
<!DOCTYPE svg PUBLIC "-//W3C//DTD SVG 1.1//EN" "http://www.w3.org/Graphics/SVG/1.1/DTD/svg11.dtd">
<svg version="1.1" id="slideshow" xmlns="http://www.w3.org/2000/svg" xmlns:xlink="http://www.w3.org/1999/xlink" x="0px" y="0px"
	 width="64px" height="64px" viewBox="0 0 64 64" enable-background="new 0 0 64 64" xml:space="preserve">
		<path class="envira-icon" d="M62,4H2C0.9,4,0,4.9,0,6c0,1.1,0.9,2,2,2h2v36c0,2.2,1.8,4,4,4h17.3l-5,9.2c-0.6,0.9-0.2,2.1,0.8,2.6
			c1.1,0.5,2.4,0.2,3-0.7l5.6-10.2c0.2-0.3,0.3-0.5,0.3-0.8H34c0,0.3,0.1,0.6,0.3,0.8l5.6,10.2c0.6,0.9,2,1.2,3,0.7
			c1.1-0.5,1.4-1.7,0.8-2.6l-5-9.2H56c2.2,0,4-1.8,4-4V8h2c1.1,0,2-0.9,2-2C64,4.9,63.1,4,62,4z M56,12L56,12l0,30c0,1.1-0.9,2-2,2
			H10c-1.1,0-2-0.9-2-2V10l0,0V8h2c0,0,0,0,0,0h44c0,0,0,0,0,0h2V12z M51,15.9c-1-0.6-2.2-0.2-2.7,0.7L35.9,27.9l-9.8-7
			c-0.5-0.7-1.5-1.1-2.4-0.9c-0.2,0-0.3,0.1-0.5,0.1c0,0-0.1,0-0.1,0c0,0-0.1,0-0.1,0.1c-0.1,0.1-0.3,0.2-0.4,0.3
			c-0.1,0.1-0.2,0.2-0.3,0.3c0,0,0,0-0.1,0.1l-10,12c-0.6,1-0.2,2.2,0.7,2.8s2.2,0.2,2.7-0.7l8.8-10.5l9.3,6.6
			c0.2,0.3,0.5,0.5,0.9,0.7c0.1,0.1,0.1,0.3,0.3,0.4c1,0.5,2.2,0.2,2.7-0.7l14-12.8C52.3,17.6,52,16.4,51,15.9z"/>
</svg>
