<?xml version="1.0" encoding="utf-8"?>
<!DOCTYPE svg PUBLIC "-//W3C//DTD SVG 1.1//EN" "http://www.w3.org/Graphics/SVG/1.1/DTD/svg11.dtd">
<svg version="1.1" id="tags" xmlns="http://www.w3.org/2000/svg" xmlns:xlink="http://www.w3.org/1999/xlink" x="0px" y="0px"
	 width="64px" height="64px" viewBox="0 0 64 64" enable-background="new 0 0 64 64" xml:space="preserve">
		<path class="envira-icon" d="M12.3,37.7l14,14l2.8-2.8l-14-14L12.3,37.7z M33.3,0L1.2,32.1c-1.5,1.5-1.5,4,0,5.6l25.1,25.1
			c1.5,1.5,4,1.5,5.6,0L64,30.7L64,0L33.3,0z M59.8,29.3L30.5,58.7c-0.8,0.8-2,0.8-2.8,0L5.3,36.3c-0.8-0.8-0.8-2,0-2.8L34.7,4.2
			L60,4L59.8,29.3z M53.7,21.7c3.1-3.1,3.1-8.2,0-11.3c-3.1-3.1-8.2-3.1-11.3,0c-3.1,3.1-3.1,8.2,0,11.3
			C45.4,24.8,50.5,24.8,53.7,21.7z M45.2,13.1c1.6-1.6,4.1-1.6,5.7,0c1.6,1.6,1.6,4.1,0,5.7c-1.6,1.6-4.1,1.6-5.7,0
			C43.6,17.2,43.6,14.7,45.2,13.1z"/>
</svg>