<?xml version="1.0" encoding="utf-8"?>
<!DOCTYPE svg PUBLIC "-//W3C//DTD SVG 1.1//EN" "http://www.w3.org/Graphics/SVG/1.1/DTD/svg11.dtd">
<svg version="1.1" id="watermark" xmlns="http://www.w3.org/2000/svg" xmlns:xlink="http://www.w3.org/1999/xlink" x="0px" y="0px"
	 width="64px" height="64px" viewBox="0 0 64 64" enable-background="new 0 0 64 64" xml:space="preserve">
		<path class="envira-icon" d="M50,24v-6c0-9.9-8.1-18-18-18c-9.9,0-18,8.1-18,18v6h0c-4.4,0-8,3.6-8,8v24c0,4.4,3.6,8,8,8h36
			c4.4,0,8-3.6,8-8V32C58,27.6,54.4,24,50,24z M18,18c0-7.7,6.3-14,14-14c7.7,0,14,6.3,14,14v6H18V18z M54,56c0,2.2-1.8,4-4,4H14
			c-2.2,0-4-1.8-4-4V32c0-2.2,1.8-4,4-4h36c2.2,0,4,1.8,4,4V56z M32,36c-1.1,0-2,0.9-2,2v12c0,1.1,0.9,2,2,2c1.1,0,2-0.9,2-2V38
			C34,36.9,33.1,36,32,36z"/>
</svg>