<?xml version="1.0" standalone="no"?>
<!DOCTYPE svg PUBLIC "-//W3C//DTD SVG 1.1//EN" "http://www.w3.org/Graphics/SVG/1.1/DTD/svg11.dtd">
<svg width="64px" height="64px" viewBox="0 0 64 64" version="1.1" xmlns="http://www.w3.org/2000/svg" xmlns:xlink="http://www.w3.org/1999/xlink" xml:space="preserve" style="fill-rule:evenodd;clip-rule:evenodd;stroke-linejoin:round;stroke-miterlimit:1.41421;">
    <g transform="matrix(0.5625,0,0,0.5625,0,28)">
        <clipPath id="_clip1">
            <path d="M0,0L32,0L32,32L64,32L64,64L0,64L0,0Z"/>
        </clipPath>
        <g clip-path="url(#_clip1)">
            <path class="envira-icon" d="M60,0L4,0C1.8,0 0,1.8 0,4L0,60C0,62.2 1.8,64 4,64L60,64C62.2,64 64,62.2 64,60L64,4C64,1.8 62.2,0 60,0ZM6,60C4.9,60 4,59.1 4,58L4,51.2L21.6,37L41.5,60L6,60ZM60,58C60,59.1 59.1,60 58,60L47.2,60L32.3,42.8L49.8,28.5L59.9,39.5L60,39.5L60,58ZM60,33.3L51.9,24.5C51.4,24.1 50.7,24 50,24C49.4,24 48.8,24.1 48.4,24.5L29.7,39.8L23.5,32.6C23,32.1 22.4,31.9 21.8,32C21.6,32 21.5,32.1 21.3,32.1C21.2,32.1 21.2,32.1 21.1,32.2C20.7,32.3 20.3,32.3 20,32.6L4,45.7L4,6C4,4.9 4.9,4 6,4L58,4C59.1,4 60,4.9 60,6L60,33.3ZM16,8C11.6,8 8,11.6 8,16C8,20.4 11.6,24 16,24C20.4,24 24,20.4 24,16C24,11.6 20.4,8 16,8ZM16,20C13.8,20 12,18.2 12,16C12,13.8 13.8,12 16,12C18.2,12 20,13.8 20,16C20,18.2 18.2,20 16,20Z" style="fill-rule:nonzero;"/>
        </g>
    </g>
    <g transform="matrix(1,0,0,1,-1,1)">
        <g id="Layer3">
            <clipPath id="_clip2">
                <path d="M20,0L64,0L64,44L20,44L20,0ZM62,42L62,2L22,2L22,42L62,42Z"/>
            </clipPath>
            <g clip-path="url(#_clip2)">
                <rect x="20" y="0" width="44" height="44" class="envira-icon" />
            </g>
        </g>
    </g>
    <g transform="matrix(1.17188,0,0,1.17187,13,-6)">
        <clipPath id="_clip3">
            <rect x="5.973" y="6.827" width="35.84" height="35.84"/>
        </clipPath>
        <g clip-path="url(#_clip3)">
            <path class="envira-icon" d="M60,0L4,0C1.8,0 0,1.8 0,4L0,60C0,62.2 1.8,64 4,64L60,64C62.2,64 64,62.2 64,60L64,4C64,1.8 62.2,0 60,0ZM6,60C4.9,60 4,59.1 4,58L4,51.2L21.6,37L41.5,60L6,60ZM60,58C60,59.1 59.1,60 58,60L47.2,60L32.3,42.8L49.8,28.5L59.9,39.5L60,39.5L60,58ZM60,33.3L51.9,24.5C51.4,24.1 50.7,24 50,24C49.4,24 48.8,24.1 48.4,24.5L29.7,39.8L23.5,32.6C23,32.1 22.4,31.9 21.8,32C21.6,32 21.5,32.1 21.3,32.1C21.2,32.1 21.2,32.1 21.1,32.2C20.7,32.3 20.3,32.3 20,32.6L4,45.7L4,6C4,4.9 4.9,4 6,4L58,4C59.1,4 60,4.9 60,6L60,33.3ZM16,8C11.6,8 8,11.6 8,16C8,20.4 11.6,24 16,24C20.4,24 24,20.4 24,16C24,11.6 20.4,8 16,8ZM16,20C13.8,20 12,18.2 12,16C12,13.8 13.8,12 16,12C18.2,12 20,13.8 20,16C20,18.2 18.2,20 16,20Z" style="fill-rule:nonzero;"/>
        </g>
    </g>
</svg>
