<svg enable-background="new 0 0 27.857 27.857" height="15" viewBox="0 0 27.857 27.857" width="15" xmlns="http://www.w3.org/2000/svg"><g fill="#c3c3c3"><path d="m2.203 5.331 10.034 7.948c.455.36 1.082.52 1.691.49.608.03 1.235-.129 1.69-.49l10.034-7.948c.804-.633.622-1.152-.398-1.152h-11.325-11.325c-1.021 0-1.203.519-.401 1.152z"/><path d="m26.377 7.428-10.965 8.325c-.41.308-.947.458-1.482.451-.536.007-1.073-.144-1.483-.451l-10.967-8.325c-.814-.617-1.48-.286-1.48.735v13.659c0 1.021.836 1.857 1.857 1.857h12.071 12.072c1.021 0 1.857-.836 1.857-1.857v-13.659c0-1.021-.666-1.352-1.48-.735z"/></g></svg>