<svg enable-background="new 0 0 96.828 96.827" height="96.827" viewBox="0 0 96.828 96.827" width="96.828" xmlns="http://www.w3.org/2000/svg"><path d="m62.617 0h-23.092c-10.29 0-17.413 2.256-23.824 7.552-5.042 4.35-8.051 10.672-8.051 16.912 0 9.614 7.33 19.831 20.913 19.831 1.306 0 2.752-.134 4.028-.253l-.188.457c-.546 1.308-1.063 2.542-1.063 4.468 0 3.75 1.809 6.063 3.558 8.298l.22.283-.391.027c-5.609.384-16.049 1.1-23.675 5.787-9.007 5.355-9.707 13.145-9.707 15.404 0 8.988 8.376 18.06 27.09 18.06 21.76 0 33.146-12.005 33.146-23.863.002-8.771-5.141-13.101-10.6-17.698l-4.605-3.582c-1.423-1.179-3.195-2.646-3.195-5.364 0-2.672 1.772-4.436 3.336-5.992l.163-.165c4.973-3.917 10.609-8.358 10.609-17.964 0-9.658-6.035-14.649-8.937-17.048h7.663c.094 0 .188-.026.266-.077l6.601-4.15c.188-.119.276-.348.214-.562-.059-.214-.257-.361-.479-.361zm-28.003 91.535c-13.264 0-22.176-6.195-22.176-15.416 0-6.021 3.645-10.396 10.824-12.997 5.749-1.935 13.17-2.031 13.244-2.031 1.257 0 1.889 0 2.893.126 9.281 6.605 13.743 10.073 13.743 16.678-.001 8.414-7.101 13.64-18.528 13.64zm-.125-50.779c-11.132 0-15.752-14.633-15.752-22.468 0-3.984.906-7.042 2.77-9.351 2.023-2.531 5.487-4.166 8.825-4.166 10.221 0 15.873 13.738 15.873 23.233 0 1.498 0 6.055-3.148 9.22-2.117 2.113-5.56 3.532-8.568 3.532z"/><path d="m94.982 45.223h-12.168v-12.125c0-.276-.225-.5-.5-.5h-5.234c-.276 0-.5.224-.5.5v12.125h-12.107c-.276 0-.5.224-.5.5v5.304c0 .275.224.5.5.5h12.107v12.203c0 .275.224.5.5.5h5.234c.275 0 .5-.225.5-.5v-12.205h12.168c.276 0 .5-.223.5-.5v-5.302c0-.277-.223-.5-.5-.5z"/></svg>